<?xml version="1.0" encoding="UTF-8"?><svg id="a" xmlns="http://www.w3.org/2000/svg" viewBox="0 0 727.32 727.27"><defs><style>.b{fill:#fff;}.c{fill:#f8ff13;}.d{fill:#19191a;}</style></defs><path class="d" d="M36.27,339.68l351.33,351.33c67.26,67.26,182.1,36.49,206.72-55.38l128.66-479.94c24.63-91.88-59.45-175.97-151.33-151.35L91.66,132.95C-.22,157.57-30.99,272.42,36.27,339.68Z"/><g><g><path class="b" d="M563.72,289.99l-4.61,17.22,31.61,31.39h0l-37.3-10.13-3.99,14.91,51.23,13.72,6.15-22.93-43.08-44.18h0Z"/><polygon class="b" points="511.21 485.96 507.07 501.42 532.69 516.81 502.41 518.81 498.52 533.35 498.31 534.11 545.52 562.72 549.62 547.41 523.48 531.7 554.14 529.67 554.35 529.8 554.38 529.66 558.31 515.11 558.28 515.12 558.48 514.36 511.21 485.96"/><path class="b" d="M525.23,433.66l-7.78,29.04,43.08,44.18,4.61-17.22-7.27-7.13,6.04-22.54,8.57,2.29,3.99-14.9-20.99-5.62,.93-3.49-3.76-2.27-1.25,4.66-26.18-7.01h0Zm27.36,18.86l-1.03,3.86-3.9,14.58-.26,.97-13.78-13.7,1.66-6.2,12.21,3.27,1.04-3.89,4.06,1.12h0Z"/><g><polygon class="b" points="582.33 278.63 586.42 263.35 590.65 247.56 577.07 239.45 572.85 255.23 568.73 270.58 582.28 278.78 582.33 278.63 582.33 278.63"/><polygon class="b" points="578.18 294.11 581.56 296.15 581.55 296.19 592.84 302.95 612.06 314.53 616.17 299.19 616.2 299.09 620.28 283.81 624.56 267.86 610.99 259.75 606.75 275.6 602.63 290.97 602.66 291.05 599.24 289 604.04 271.05 590.46 262.95 585.67 280.82 582.28 278.78 578.18 294.11"/></g><polygon class="b" points="541.34 373.17 528.73 420.23 542.28 428.35 546.84 411.36 580.73 431.78 584.88 416.28 550.99 395.85 554.89 381.28 541.34 373.17"/><polygon class="b" points="543.59 365.11 590.88 393.55 595.01 378.14 547.72 349.71 543.59 365.11"/></g><g><polygon class="c" points="297.52 272.43 327.51 302.41 461.73 266.45 432.29 376.34 451.82 449.24 478.57 476 561.44 166.74 288.78 239.79 297.52 272.43"/><polygon class="b" points="168.44 319.15 185.68 301.9 197.14 313.36 179.89 330.6 206.63 357.34 216.52 347.44 227.97 358.9 218.08 368.79 244.82 395.53 262.06 378.28 273.51 389.74 256.27 406.98 283 433.72 292.9 423.82 304.35 435.28 294.46 445.17 321.19 471.9 338.44 454.66 349.89 466.11 332.65 483.36 359.38 510.09 369.28 500.2 380.73 511.65 370.84 521.55 397.57 548.28 414.82 531.04 426.27 542.49 409.03 559.74 446.18 596.88 472.52 498.59 433.65 459.73 421.8 415.49 409.68 460.68 267.49 318.5 304.9 308.47 279.35 282.92 269.2 245.04 131.29 282 168.44 319.15"/></g><g><polygon class="c" points="215.19 168.19 203.34 193.48 190.61 174.78 175.32 178.88 174.23 234.34 189.52 230.24 190.01 199.59 199.65 214.05 209.62 211.38 219.44 190.71 218.82 222.39 234.25 218.25 235.17 162.84 215.19 168.19"/><path class="c" d="M166.74,207.01l.12-5.48c.18-12.62-7.28-18.44-19.44-15.19l-28.15,7.55-.36,22.48-7.56,2.02-.08,4.41,7.57-2.03-.46,28.54,15.38-4.12,.28-14.83,18.21-4.88c9.52-2.55,14.28-8.48,14.49-18.45h0Zm-15.79,5.12l-8.74,2.34v.02l-15.43,4.14,.09-4.41,7.47-2,.16-7.57,16.55-4.44-.08,11.92h0Z"/><g><polygon class="b" points="258.97 172.18 274.23 168.1 290 163.87 290.2 148 274.45 152.22 259.11 156.33 258.81 172.23 258.97 172.18 258.97 172.18"/><polygon class="b" points="243.51 176.33 243.44 180.29 243.39 180.31 243.21 193.51 242.82 216.06 258.14 211.95 258.24 211.92 273.5 207.83 289.43 203.57 289.64 187.69 273.81 191.93 258.46 196.05 258.41 196.12 258.48 192.11 276.4 187.29 276.6 171.42 258.74 176.2 258.81 172.23 243.51 176.33"/></g><polygon class="b" points="345.18 133.27 298.17 145.86 297.95 161.72 314.92 157.18 314.24 196.91 329.71 192.78 330.4 153.03 344.95 149.13 345.18 133.27"/><path class="b" d="M484.18,96.1l-15.89,4.25-.75,39.68-7.36,1.97-2.53,.68-4.32,1.16-3.38,.9h0l-3.32,.89,.07-4.01,3.32-.89,.56-35.57h0l-15.58,4.12-.54,35.63-3.19,.85-.07,4.01,3.48-.93h0s0,.06,.02,.1c.09,.52,.18,1.02,.3,1.52,0,.06,.03,.12,.04,.18,.12,.49,.26,.95,.41,1.41,.03,.09,.06,.17,.09,.24,.16,.44,.33,.86,.51,1.26,.03,.07,.07,.14,.1,.2,.19,.41,.41,.81,.64,1.18,0,.02,.03,.05,.05,.07,.22,.37,.48,.71,.73,1.04,.04,.05,.07,.09,.11,.14,.26,.32,.53,.62,.83,.9,.06,.06,.12,.11,.17,.17,.29,.27,.59,.53,.91,.77,.06,.04,.12,.09,.17,.13,.33,.24,.68,.47,1.04,.67,.02,0,.05,.02,.07,.04,.35,.19,.72,.37,1.1,.52,.06,.03,.13,.06,.18,.08,.38,.15,.78,.28,1.18,.4,.09,.03,.17,.05,.26,.07,.41,.11,.83,.19,1.26,.26,.08,0,.17,.02,.24,.04,.46,.07,.92,.12,1.4,.15h.07c.48,.02,.96,.02,1.47,0h.24c.5-.02,1-.07,1.52-.13,.1,0,.2-.02,.3-.04,.52-.07,1.06-.16,1.61-.26,.09-.02,.17-.04,.25-.05,.58-.12,1.18-.25,1.78-.42l.24-.07,9.97-2.65,4.9-1.31h0c9.5-2.54,14.24-8.49,14.45-18.42l.91-40.91h-.03Z"/><polygon class="b" points="561.18 75.49 545.69 79.63 545.69 79.63 542.17 80.58 542.08 84.98 532.01 87.68 522.51 107.95 509.77 89.26 494.48 93.36 493.39 148.82 508.69 144.72 509.18 114.07 518.82 128.53 528.79 125.86 538.61 105.19 537.98 136.87 553.42 132.73 554.26 81.72 561.1 79.89 561.18 75.49"/><path class="b" d="M380.44,124.08l-28.17,7.55-.91,55.34,15.42-4.13,.25-15.31,9.51-2.54,8.15,13.05,15.87-4.25-8.66-13.9c5.1-3.14,7.69-8.23,7.78-15.64l.07-4.96c.21-12.82-7.24-18.45-19.32-15.21h0Zm3.54,25.78l-16.71,4.48,.24-11.95,16.55-4.44-.08,11.91h0Z"/><polygon class="b" points="410.3 115.92 409.4 171.33 424.78 167.2 425.67 111.79 410.3 115.92"/></g></g></svg>